<?xml version="1.0" encoding="UTF-8" standalone="no"?>
<!-- Created with Inkscape (http://www.inkscape.org/) -->

<svg
   xmlns:dc="http://purl.org/dc/elements/1.1/"
   xmlns:cc="http://creativecommons.org/ns#"
   xmlns:rdf="http://www.w3.org/1999/02/22-rdf-syntax-ns#"
   xmlns:svg="http://www.w3.org/2000/svg"
   xmlns="http://www.w3.org/2000/svg"
   xmlns:sodipodi="http://sodipodi.sourceforge.net/DTD/sodipodi-0.dtd"
   xmlns:inkscape="http://www.inkscape.org/namespaces/inkscape"
   width="744.09448819"
   height="1052.3622047"
   id="svg2"
   version="1.1"
   inkscape:version="0.48.5 r10040"
   sodipodi:docname="New document 1">
  <defs
     id="defs4" />
  <sodipodi:namedview
     id="base"
     pagecolor="#ffffff"
     bordercolor="#666666"
     borderopacity="1.0"
     inkscape:pageopacity="0.0"
     inkscape:pageshadow="2"
     inkscape:zoom="0.35"
     inkscape:cx="1376.1465"
     inkscape:cy="347.29178"
     inkscape:document-units="px"
     inkscape:current-layer="layer1"
     showgrid="false"
     inkscape:snap-global="false"
     inkscape:window-width="1536"
     inkscape:window-height="803"
     inkscape:window-x="-8"
     inkscape:window-y="-8"
     inkscape:window-maximized="1" />
  <metadata
     id="metadata7">
    <rdf:RDF>
      <cc:Work
         rdf:about="">
        <dc:format>image/svg+xml</dc:format>
        <dc:type
           rdf:resource="http://purl.org/dc/dcmitype/StillImage" />
        <dc:title></dc:title>
      </cc:Work>
    </rdf:RDF>
  </metadata>
  <g
     inkscape:label="Layer 1"
     inkscape:groupmode="layer"
     id="layer1">
    <rect
       style="fill:#00ff00;fill-rule:evenodd;stroke:#000000;stroke-width:1.12983346px;stroke-linecap:butt;stroke-linejoin:miter;stroke-opacity:1"
       id="rect2985"
       width="404.04156"
       height="267.66132"
       x="41.481174"
       y="356.43201" />
    <rect
       style="fill:#ffffff;fill-rule:evenodd;stroke:#000000;stroke-width:1.12983346px;stroke-linecap:butt;stroke-linejoin:miter;stroke-opacity:1"
       id="rect2987"
       width="233.22725"
       height="267.66132"
       x="458.66232"
       y="357.62158" />
    <rect
       style="fill:#ff0000"
       id="rect2989"
       width="28.014421"
       height="29.760704"
       x="489.21805"
       y="486.00345" />
    <rect
       style="fill:#0000ff"
       id="rect2989-1"
       width="28.014421"
       height="29.760704"
       x="525.63678"
       y="486.45435" />
    <rect
       style="fill:#ffff00"
       id="rect2989-1-7"
       width="28.014421"
       height="29.760704"
       x="562.45575"
       y="486.45435" />
    <rect
       style="fill:#00ff00"
       id="rect2989-1-7-4"
       width="28.014421"
       height="29.760704"
       x="488.81781"
       y="525.2334" />
    <rect
       style="fill:#ff0000"
       id="rect2989-1-7-4-0"
       width="28.014421"
       height="29.760704"
       x="525.63678"
       y="524.33154" />
    <rect
       style="fill:#00ff00"
       id="rect2989-1-7-4-0-9"
       width="28.014421"
       height="29.760704"
       x="563.25616"
       y="523.42975" />
    <rect
       style="fill:#ffff00"
       id="rect2989-8"
       width="28.014421"
       height="29.760704"
       x="489.41815"
       y="560.63062" />
    <rect
       style="fill:#ff0000"
       id="rect2989-1-8"
       width="28.014421"
       height="29.760704"
       x="526.63727"
       y="560.17975" />
    <rect
       style="fill:#ff0000"
       id="rect2989-1-7-2"
       width="28.014421"
       height="29.760704"
       x="563.45624"
       y="560.17975" />
    <text
       xml:space="preserve"
       style="font-size:23.29147148px;font-style:normal;font-weight:normal;line-height:125%;letter-spacing:0px;word-spacing:0px;fill:#000000;fill-opacity:1;stroke:none;font-family:Sans"
       x="500.11588"
       y="512.31287"
       id="text3127"
       sodipodi:linespacing="125%"
       transform="scale(0.9965022,1.0035101)"><tspan
         sodipodi:role="line"
         id="tspan3129"
         x="500.11588"
         y="512.31287">4</tspan></text>
    <text
       xml:space="preserve"
       style="font-size:23.29147148px;font-style:normal;font-weight:normal;line-height:125%;letter-spacing:0px;word-spacing:0px;fill:#000000;fill-opacity:1;stroke:none;font-family:Sans"
       x="535.10126"
       y="507.8093"
       id="text3127-4"
       sodipodi:linespacing="125%"
       transform="scale(0.9965022,1.0035101)"><tspan
         sodipodi:role="line"
         id="tspan3129-5"
         x="535.10126"
         y="507.8093">6</tspan></text>
    <text
       xml:space="preserve"
       style="font-size:23.29147148px;font-style:normal;font-weight:normal;line-height:125%;letter-spacing:0px;word-spacing:0px;fill:#000000;fill-opacity:1;stroke:none;font-family:Sans"
       x="571.24615"
       y="508.70798"
       id="text3127-4-5"
       sodipodi:linespacing="125%"
       transform="scale(0.9965022,1.0035101)"><tspan
         sodipodi:role="line"
         id="tspan3129-5-1"
         x="571.24615"
         y="508.70798">8</tspan></text>
    <text
       xml:space="preserve"
       style="font-size:23.29147148px;font-style:normal;font-weight:normal;line-height:125%;letter-spacing:0px;word-spacing:0px;fill:#000000;fill-opacity:1;stroke:none;font-family:Sans"
       x="499.13446"
       y="545.11487"
       id="text3127-7"
       sodipodi:linespacing="125%"
       transform="scale(0.9965022,1.0035101)"><tspan
         sodipodi:role="line"
         id="tspan3129-1"
         x="499.13446"
         y="545.11487">1</tspan></text>
    <text
       xml:space="preserve"
       style="font-size:23.29147148px;font-style:normal;font-weight:normal;line-height:125%;letter-spacing:0px;word-spacing:0px;fill:#000000;fill-opacity:1;stroke:none;font-family:Sans"
       x="537.33282"
       y="543.75671"
       id="text3127-4-1"
       sodipodi:linespacing="125%"
       transform="scale(0.9965022,1.0035101)"><tspan
         sodipodi:role="line"
         id="tspan3129-5-5"
         x="537.33282"
         y="543.75671">2</tspan></text>
    <text
       xml:space="preserve"
       style="font-size:23.29147148px;font-style:normal;font-weight:normal;line-height:125%;letter-spacing:0px;word-spacing:0px;fill:#000000;fill-opacity:1;stroke:none;font-family:Sans"
       x="571.06805"
       y="545.1048"
       id="text3127-4-5-2"
       sodipodi:linespacing="125%"
       transform="scale(0.9965022,1.0035101)"><tspan
         sodipodi:role="line"
         id="tspan3129-5-1-7"
         x="571.06805"
         y="545.1048">7</tspan></text>
    <text
       xml:space="preserve"
       style="font-size:23.29147148px;font-style:normal;font-weight:normal;line-height:125%;letter-spacing:0px;word-spacing:0px;fill:#000000;fill-opacity:1;stroke:none;font-family:Sans"
       x="498.33124"
       y="580.16357"
       id="text3127-6"
       sodipodi:linespacing="125%"
       transform="scale(0.9965022,1.0035101)"><tspan
         sodipodi:role="line"
         id="tspan3129-14"
         x="498.33124"
         y="580.16357">6</tspan></text>
    <text
       xml:space="preserve"
       style="font-size:23.29147148px;font-style:normal;font-weight:normal;line-height:125%;letter-spacing:0px;word-spacing:0px;fill:#000000;fill-opacity:1;stroke:none;font-family:Sans"
       x="535.72638"
       y="581.05219"
       id="text3127-4-2"
       sodipodi:linespacing="125%"
       transform="scale(0.9965022,1.0035101)"><tspan
         sodipodi:role="line"
         id="tspan3129-5-3"
         x="535.72638"
         y="581.05219">3</tspan></text>
    <text
       xml:space="preserve"
       style="font-size:23.29147148px;font-style:normal;font-weight:normal;line-height:125%;letter-spacing:0px;word-spacing:0px;fill:#000000;fill-opacity:1;stroke:none;font-family:Sans"
       x="576.28894"
       y="581.95087"
       id="text3127-4-5-22"
       sodipodi:linespacing="125%"
       transform="scale(0.9965022,1.0035101)"><tspan
         sodipodi:role="line"
         id="tspan3129-5-1-1"
         x="576.28894"
         y="581.95087">2</tspan></text>
    <rect
       style="fill:#000000"
       id="rect3223"
       width="152.19995"
       height="57.101086"
       x="497.97095"
       y="387.26611" />
    <text
       xml:space="preserve"
       style="font-size:45.1933403px;font-style:normal;font-weight:normal;line-height:125%;letter-spacing:0px;word-spacing:0px;fill:#ffffff;fill-opacity:1;stroke:none;font-family:Sans"
       x="572.68713"
       y="413.77014"
       id="text3225"
       sodipodi:linespacing="125%"
       transform="scale(0.95939686,1.0423215)"><tspan
         sodipodi:role="line"
         id="tspan3227"
         x="572.68713"
         y="413.77014">74</tspan></text>
    <rect
       style="fill:#ffff00"
       id="rect2989-1-7-6"
       width="28.014421"
       height="29.760704"
       x="598.08533"
       y="486.10388" />
    <rect
       style="fill:#ff0000"
       id="rect2989-1-7-4-0-9-8"
       width="28.014421"
       height="29.760704"
       x="598.88574"
       y="523.07928" />
    <rect
       style="fill:#0000ff"
       id="rect2989-1-7-2-5"
       width="28.014421"
       height="29.760704"
       x="599.08582"
       y="559.82922" />
    <text
       xml:space="preserve"
       style="font-size:23.29147148px;font-style:normal;font-weight:normal;line-height:125%;letter-spacing:0px;word-spacing:0px;fill:#000000;fill-opacity:1;stroke:none;font-family:Sans"
       x="607.00079"
       y="508.3587"
       id="text3127-4-5-7"
       sodipodi:linespacing="125%"
       transform="scale(0.9965022,1.0035101)"><tspan
         sodipodi:role="line"
         id="tspan3129-5-1-6"
         x="607.00079"
         y="508.3587">3</tspan></text>
    <text
       xml:space="preserve"
       style="font-size:23.29147148px;font-style:normal;font-weight:normal;line-height:125%;letter-spacing:0px;word-spacing:0px;fill:#000000;fill-opacity:1;stroke:none;font-family:Sans"
       x="606.82263"
       y="544.75549"
       id="text3127-4-5-2-1"
       sodipodi:linespacing="125%"
       transform="scale(0.9965022,1.0035101)"><tspan
         sodipodi:role="line"
         id="tspan3129-5-1-7-8"
         x="606.82263"
         y="544.75549">1</tspan></text>
    <text
       xml:space="preserve"
       style="font-size:23.29147148px;font-style:normal;font-weight:normal;line-height:125%;letter-spacing:0px;word-spacing:0px;fill:#000000;fill-opacity:1;stroke:none;font-family:Sans"
       x="612.04358"
       y="581.60156"
       id="text3127-4-5-22-9"
       sodipodi:linespacing="125%"
       transform="scale(0.9965022,1.0035101)"><tspan
         sodipodi:role="line"
         id="tspan3129-5-1-1-2"
         x="612.04358"
         y="581.60156">9</tspan></text>
    <rect
       style="fill:#ff0000"
       id="rect2989-1-7-6-7"
       width="28.014421"
       height="29.760704"
       x="632.57666"
       y="485.50906" />
    <rect
       style="fill:#ffff00"
       id="rect2989-1-7-4-0-9-8-9"
       width="28.014421"
       height="29.760704"
       x="633.37714"
       y="522.4845" />
    <rect
       style="fill:#ff0000"
       id="rect2989-1-7-2-5-5"
       width="28.014421"
       height="29.760704"
       x="633.57721"
       y="559.23444" />
    <text
       xml:space="preserve"
       style="font-size:23.29147148px;font-style:normal;font-weight:normal;line-height:125%;letter-spacing:0px;word-spacing:0px;fill:#000000;fill-opacity:1;stroke:none;font-family:Sans"
       x="641.61316"
       y="507.76599"
       id="text3127-4-5-7-4"
       sodipodi:linespacing="125%"
       transform="scale(0.9965022,1.0035101)"><tspan
         sodipodi:role="line"
         id="tspan3129-5-1-6-3"
         x="641.61316"
         y="507.76599">4</tspan></text>
    <text
       xml:space="preserve"
       style="font-size:23.29147148px;font-style:normal;font-weight:normal;line-height:125%;letter-spacing:0px;word-spacing:0px;fill:#000000;fill-opacity:1;stroke:none;font-family:Sans"
       x="641.43506"
       y="544.16278"
       id="text3127-4-5-2-1-1"
       sodipodi:linespacing="125%"
       transform="scale(0.9965022,1.0035101)"><tspan
         sodipodi:role="line"
         id="tspan3129-5-1-7-8-2"
         x="641.43506"
         y="544.16278">7</tspan></text>
    <text
       xml:space="preserve"
       style="font-size:23.29147148px;font-style:normal;font-weight:normal;line-height:125%;letter-spacing:0px;word-spacing:0px;fill:#000000;fill-opacity:1;stroke:none;font-family:Sans"
       x="646.65601"
       y="581.00885"
       id="text3127-4-5-22-9-3"
       sodipodi:linespacing="125%"
       transform="scale(0.9965022,1.0035101)"><tspan
         sodipodi:role="line"
         id="tspan3129-5-1-1-2-3"
         x="646.65601"
         y="581.00885">3</tspan></text>
    <rect
       style="fill:#00ff00"
       id="rect2989-4"
       width="28.014421"
       height="29.760704"
       x="489.13"
       y="451.01712" />
    <rect
       style="fill:#ff0000"
       id="rect2989-1-1"
       width="28.014421"
       height="29.760704"
       x="525.54871"
       y="451.46799" />
    <rect
       style="fill:#ff0000"
       id="rect2989-1-7-1"
       width="28.014421"
       height="29.760704"
       x="562.36768"
       y="451.46799" />
    <text
       xml:space="preserve"
       style="font-size:23.29147148px;font-style:normal;font-weight:normal;line-height:125%;letter-spacing:0px;word-spacing:0px;fill:#000000;fill-opacity:1;stroke:none;font-family:Sans"
       x="498.37927"
       y="473.2998"
       id="text3127-3"
       sodipodi:linespacing="125%"
       transform="scale(0.9965022,1.0035101)"><tspan
         sodipodi:role="line"
         id="tspan3129-8"
         x="498.37927"
         y="473.2998">5</tspan></text>
    <text
       xml:space="preserve"
       style="font-size:23.29147148px;font-style:normal;font-weight:normal;line-height:125%;letter-spacing:0px;word-spacing:0px;fill:#000000;fill-opacity:1;stroke:none;font-family:Sans"
       x="535.01288"
       y="472.94534"
       id="text3127-4-7"
       sodipodi:linespacing="125%"
       transform="scale(0.9965022,1.0035101)"><tspan
         sodipodi:role="line"
         id="tspan3129-5-4"
         x="535.01288"
         y="472.94534">6</tspan></text>
    <text
       xml:space="preserve"
       style="font-size:23.29147148px;font-style:normal;font-weight:normal;line-height:125%;letter-spacing:0px;word-spacing:0px;fill:#000000;fill-opacity:1;stroke:none;font-family:Sans"
       x="571.15771"
       y="473.84402"
       id="text3127-4-5-27"
       sodipodi:linespacing="125%"
       transform="scale(0.9965022,1.0035101)"><tspan
         sodipodi:role="line"
         id="tspan3129-5-1-79"
         x="571.15771"
         y="473.84402">1</tspan></text>
    <rect
       style="fill:#ff0000"
       id="rect2989-1-7-6-3"
       width="28.014421"
       height="29.760704"
       x="597.99725"
       y="451.11752" />
    <text
       xml:space="preserve"
       style="font-size:23.29147148px;font-style:normal;font-weight:normal;line-height:125%;letter-spacing:0px;word-spacing:0px;fill:#000000;fill-opacity:1;stroke:none;font-family:Sans"
       x="606.91235"
       y="473.49475"
       id="text3127-4-5-7-1"
       sodipodi:linespacing="125%"
       transform="scale(0.9965022,1.0035101)"><tspan
         sodipodi:role="line"
         id="tspan3129-5-1-6-9"
         x="606.91235"
         y="473.49475">2</tspan></text>
    <rect
       style="fill:#0000ff"
       id="rect2989-1-7-6-7-8"
       width="28.014421"
       height="29.760704"
       x="632.48865"
       y="450.52274" />
    <text
       xml:space="preserve"
       style="font-size:23.29147148px;font-style:normal;font-weight:normal;line-height:125%;letter-spacing:0px;word-spacing:0px;fill:#000000;fill-opacity:1;stroke:none;font-family:Sans"
       x="641.52484"
       y="472.90204"
       id="text3127-4-5-7-4-6"
       sodipodi:linespacing="125%"
       transform="scale(0.9965022,1.0035101)"><tspan
         sodipodi:role="line"
         id="tspan3129-5-1-6-3-5"
         x="641.52484"
         y="472.90204">6</tspan></text>
    <text
       xml:space="preserve"
       style="font-size:9.03866768px;font-style:normal;font-weight:normal;line-height:125%;letter-spacing:0px;word-spacing:0px;fill:#000000;fill-opacity:1;stroke:none;font-family:Sans"
       x="589.35083"
       y="579.92163"
       id="text3373"
       sodipodi:linespacing="125%"
       transform="scale(0.95939686,1.0423215)"><tspan
         sodipodi:role="line"
         id="tspan3375"
         x="589.35083"
         y="579.92163">(Exact gameplay has not been</tspan><tspan
         sodipodi:role="line"
         x="589.35083"
         y="591.21997"
         id="tspan3377">decided yet)</tspan></text>
    <rect
       style="fill:#ffcc00"
       id="rect3385"
       width="101.83162"
       height="23.197317"
       x="41.481174"
       y="414.1279" />
    <rect
       style="fill:#ffcc00"
       id="rect3387"
       width="24.636681"
       height="153.45917"
       x="142.7653"
       y="414.1279" />
    <rect
       style="fill:#ffcc00"
       id="rect3389"
       width="151.10498"
       height="22.00771"
       x="166.85451"
       y="545.57935" />
    <rect
       style="fill:#ffcc00"
       id="rect3391"
       width="24.636681"
       height="79.703598"
       x="317.95947"
       y="487.28864" />
    <rect
       style="fill:#ffcc00"
       id="rect3393"
       width="129.75319"
       height="26.171331"
       x="212.29552"
       y="461.11731" />
    <rect
       style="fill:#ffcc00"
       id="rect3395"
       width="27.37409"
       height="55.911476"
       x="212.843"
       y="406.96634" />
    <rect
       style="fill:#ffcc00"
       id="rect3397"
       width="231.58481"
       height="27.360937"
       x="212.84299"
       y="379.6293" />
    <path
       sodipodi:type="arc"
       style="fill:#ff00ff"
       id="path3401"
       sodipodi:cx="119.95561"
       sodipodi:cy="492.73767"
       sodipodi:rx="7.8286824"
       sodipodi:ry="7.5761442"
       d="m 127.78429,492.73767 a 7.8286824,7.5761442 0 1 1 -15.65736,0 7.8286824,7.5761442 0 1 1 15.65736,0 z"
       transform="matrix(1.0839587,0,0,1.1776498,-3.4123386,-125.10313)" />
    <path
       sodipodi:type="arc"
       style="fill:#ff00ff"
       id="path3403"
       sodipodi:cx="284.61047"
       sodipodi:cy="559.91284"
       sodipodi:rx="7.8286824"
       sodipodi:ry="7.0710678"
       d="m 292.43916,559.91284 a 7.8286824,7.0710678 0 1 1 -15.65737,0 7.8286824,7.0710678 0 1 1 15.65737,0 z"
       transform="matrix(1.0839587,0,0,1.1776498,-3.4123386,-125.10313)" />
    <path
       sodipodi:type="arc"
       style="fill:#ff00ff"
       id="path3405"
       sodipodi:cx="236.3757"
       sodipodi:cy="463.1907"
       sodipodi:rx="7.0710678"
       sodipodi:ry="6.8185296"
       d="m 243.44677,463.1907 a 7.0710678,6.8185296 0 1 1 -14.14214,0 7.0710678,6.8185296 0 1 1 14.14214,0 z"
       transform="matrix(1.0839587,0,0,1.1776498,-3.4123386,-125.10313)" />
    <path
       sodipodi:type="arc"
       style="fill:#ff00ff"
       id="path3407"
       sodipodi:cx="180.05969"
       sodipodi:cy="507.13235"
       sodipodi:rx="7.323606"
       sodipodi:ry="7.8286824"
       d="m 187.3833,507.13235 a 7.323606,7.8286824 0 1 1 -14.64721,0 7.323606,7.8286824 0 1 1 14.64721,0 z"
       transform="matrix(1.0839587,0,0,1.1776498,-3.4123386,-125.10313)" />
    <path
       sodipodi:type="star"
       style="fill:#000000"
       id="path3409"
       sodipodi:sides="5"
       sodipodi:cx="48.487324"
       sodipodi:cy="463.94833"
       sodipodi:r1="5.6469245"
       sodipodi:r2="2.8234622"
       sodipodi:arg1="1.1071487"
       sodipodi:arg2="1.7354672"
       inkscape:flatsided="false"
       inkscape:rounded="0"
       inkscape:randomized="0"
       d="m 51.012705,468.9991 -2.988225,-2.2655 -3.560331,1.17729 1.231201,-3.54205 -2.219867,-3.02228 3.74915,0.0764 2.188378,-3.04515 1.0859,3.58926 3.572359,1.14026 -3.078026,2.1419 z"
       inkscape:transform-center-x="-0.3100694"
       inkscape:transform-center-y="-0.30604767"
       transform="matrix(1.0839587,0,0,1.1776498,-0.67492943,-121.53431)" />
    <path
       sodipodi:type="star"
       style="fill:#000000"
       id="path3409-0"
       sodipodi:sides="5"
       sodipodi:cx="48.487324"
       sodipodi:cy="463.94833"
       sodipodi:r1="5.6469245"
       sodipodi:r2="2.8234622"
       sodipodi:arg1="1.1071487"
       sodipodi:arg2="1.7354672"
       inkscape:flatsided="false"
       inkscape:rounded="0"
       inkscape:randomized="0"
       d="m 51.012705,468.9991 -2.988225,-2.2655 -3.560331,1.17729 1.231201,-3.54205 -2.219867,-3.02228 3.74915,0.0764 2.188378,-3.04515 1.0859,3.58926 3.572359,1.14026 -3.078026,2.1419 z"
       inkscape:transform-center-x="-0.3100696"
       inkscape:transform-center-y="-0.30604775"
       transform="matrix(1.0839587,0,0,1.1776498,19.271827,-120.03866)" />
    <path
       sodipodi:type="star"
       style="fill:#000000"
       id="path3409-0-2"
       sodipodi:sides="5"
       sodipodi:cx="48.487324"
       sodipodi:cy="463.94833"
       sodipodi:r1="5.6469245"
       sodipodi:r2="2.8234622"
       sodipodi:arg1="1.1071487"
       sodipodi:arg2="1.7354672"
       inkscape:flatsided="false"
       inkscape:rounded="0"
       inkscape:randomized="0"
       d="m 51.012705,468.9991 -2.988225,-2.2655 -3.560331,1.17729 1.231201,-3.54205 -2.219867,-3.02228 3.74915,0.0764 2.188378,-3.04515 1.0859,3.58926 3.572359,1.14026 -3.078026,2.1419 z"
       inkscape:transform-center-x="-0.31006975"
       inkscape:transform-center-y="-0.30605176"
       transform="matrix(1.0839587,0,0,1.1776498,65.807782,-121.22827)" />
    <path
       style="fill:#ff0000;stroke:#ff0000;stroke-width:1.12983346px;stroke-linecap:butt;stroke-linejoin:miter;stroke-opacity:1"
       d="m 122.50848,441.48882 c 0.84097,-2.03631 -1.16656,-1.93998 -1.64245,-2.97401 -0.0816,-0.17735 0,-0.39654 0,-0.59481 0,-0.19827 0,-0.39654 0,-0.59481 0,-0.19826 0.12905,-0.45459 0,-0.59479 -0.25808,-0.2804 -1.09496,0.39653 -1.09496,0 0,-0.84265 2.55491,1.68527 -0.54747,0 -0.0585,-0.0318 0.11343,-2.25598 0,-2.37922 -0.12905,-0.14019 -0.41845,0.1402 -0.54749,0 -0.25809,-0.28039 0.25808,-0.90921 0,-1.1896 -0.72998,-0.79307 -0.54749,0.99133 -0.54749,-0.59481"
       id="path3447"
       inkscape:connector-curvature="0" />
    <path
       sodipodi:type="star"
       style="fill:#000000;stroke:#000000"
       id="path4225"
       sodipodi:sides="5"
       sodipodi:cx="62.629459"
       sodipodi:cy="654.36206"
       sodipodi:r1="8.2838669"
       sodipodi:r2="4.1419334"
       sodipodi:arg1="0.9151007"
       sodipodi:arg2="1.5434192"
       inkscape:flatsided="false"
       inkscape:rounded="0"
       inkscape:randomized="0"
       d="m 67.680222,660.92805 -4.937383,-2.42561 -4.797237,2.69218 0.781157,-5.44528 -4.042846,-3.73051 5.420165,-0.93977 2.298621,-4.99776 2.568689,4.86448 5.463472,0.64172 -3.832628,3.94618 z"
       inkscape:transform-center-x="0.075956379"
       inkscape:transform-center-y="-0.85272795"
       transform="matrix(1.0839587,0,0,1.1776498,-3.4123386,-125.10313)" />
    <path
       sodipodi:type="arc"
       style="fill:#ff00ff;stroke:#ff00ff"
       id="path4229"
       sodipodi:cx="63.134533"
       sodipodi:cy="680.12097"
       sodipodi:rx="7.0710678"
       sodipodi:ry="7.0710678"
       d="m 70.205601,680.12097 a 7.0710678,7.0710678 0 1 1 -14.142136,0 7.0710678,7.0710678 0 1 1 14.142136,0 z"
       transform="matrix(1.0839587,0,0,1.1776498,-3.4123386,-125.10313)" />
    <path
       style="fill:#ff0000;stroke:#ff0000;stroke-width:1.12983346px;stroke-linecap:butt;stroke-linejoin:miter;stroke-opacity:1"
       d="m 56.810662,703.20212 c 0.729976,0 2.189927,-0.79307 2.189927,0 0,0.79307 -2.420766,0.75237 -2.189927,0 0.336502,-1.09676 1.852013,-1.14313 2.737409,-1.78441 0.214741,-0.15553 0.332742,-0.43927 0.547482,-0.5948 0.339534,-0.24592 0.768509,-0.3288 1.094963,-0.5948 0.412938,-0.33648 0.633287,-0.93882 1.094965,-1.18961 0.326454,-0.17733 0.748705,0.12539 1.094963,0 0.489682,-0.17733 0.605281,-1.01226 1.094964,-1.18961 0.346257,-0.12539 0.791274,0.21996 1.094963,0 0.339534,-0.24591 0.207949,-0.94368 0.547482,-1.1896 0.303689,-0.21996 0.748706,0.1254 1.094964,0 0.244841,-0.0887 0.316643,-0.46941 0.547481,-0.59481 0.163228,-0.0887 0.384255,0.0887 0.547483,0 0.230838,-0.12539 0.316642,-0.4694 0.547481,-0.59479 0.163228,-0.0887 0.41844,0.14019 0.547482,0 0.129043,-0.1402 -0.129042,-0.45461 0,-0.59481 0.129043,-0.1402 0.418439,0.1402 0.547482,0 0.129042,-0.1402 -0.129043,-0.45461 0,-0.59481 0.129042,-0.14018 0.418439,0.1402 0.547482,0 0.129042,-0.14018 -0.129043,-0.45459 0,-0.59479 0.129042,-0.1402 0.364987,0 0.547481,0 0.182495,0 0.364989,0 0.547482,0"
       id="path4231"
       inkscape:connector-curvature="0" />
    <text
       xml:space="preserve"
       style="font-size:13.55800247px;font-style:normal;font-weight:normal;line-height:125%;letter-spacing:0px;word-spacing:0px;fill:#000000;fill-opacity:1;stroke:none;font-family:Sans"
       x="83.753014"
       y="624.43256"
       id="text4233"
       sodipodi:linespacing="125%"
       transform="scale(0.95939686,1.0423215)"><tspan
         sodipodi:role="line"
         id="tspan4235"
         x="83.753014"
         y="624.43256">Creep</tspan></text>
    <text
       xml:space="preserve"
       style="font-size:13.55800247px;font-style:normal;font-weight:normal;line-height:125%;letter-spacing:0px;word-spacing:0px;fill:#000000;fill-opacity:1;stroke:none;font-family:Sans"
       x="82.61171"
       y="650.68256"
       id="text4237"
       sodipodi:linespacing="125%"
       transform="scale(0.95939686,1.0423215)"><tspan
         sodipodi:role="line"
         id="tspan4239"
         x="82.61171"
         y="650.68256">Tower</tspan></text>
    <text
       xml:space="preserve"
       style="font-size:13.55800247px;font-style:normal;font-weight:normal;line-height:125%;letter-spacing:0px;word-spacing:0px;fill:#000000;fill-opacity:1;stroke:none;font-family:Sans"
       x="82.041061"
       y="674.07928"
       id="text4241"
       sodipodi:linespacing="125%"
       transform="scale(0.95939686,1.0423215)"><tspan
         sodipodi:role="line"
         id="tspan4243"
         x="82.041061"
         y="674.07928">Shot</tspan></text>
    <rect
       style="fill:#ffcc00;stroke:#ffcc00;stroke-width:1.12983346"
       id="rect4245"
       width="37.776245"
       height="16.059679"
       x="134.55309"
       y="638.96338" />
    <text
       xml:space="preserve"
       style="font-size:13.55800247px;font-style:normal;font-weight:normal;line-height:125%;letter-spacing:0px;word-spacing:0px;fill:#000000;fill-opacity:1;stroke:none;font-family:Sans"
       x="189.8943"
       y="624.43243"
       id="text4247"
       sodipodi:linespacing="125%"
       transform="scale(0.95939686,1.0423215)"><tspan
         sodipodi:role="line"
         id="tspan4249"
         x="189.8943"
         y="624.43243">Path</tspan></text>
  </g>
</svg>
